# xmcd
#
# Track frame offsets:
#	150
#	24411
#	44517
#	64168
#	82136
#	108364
#	132149
#	153107
#	172811
#	193054
#	213538
#	234069
#	249524
#	269126
#	288390
#	306665
#	330074
#
# Disc length: 4736 seconds
#
# Revision: 7
# Processed by: cddbd v1.5.2PL0 Copyright (c) Steve Scherf et al.
# Submitted via: Jack! The Knife 19 Blackthorn
#
DISCID=ed127e11
DTITLE=Lucio Dalla - Qui Dove Il Mare Luccica [CD 1)
DYEAR=2012
DGENRE=Pop
TTITLE0=Come è Profondo Il Mare
TTITLE1=L'anno Che Verrà
TTITLE2=Cosa Sarà
TTITLE3=Tango
TTITLE4=Disperato Erotico Stomp
TTITLE5=Caruso
TTITLE6=Ciao
TTITLE7=Attenti Al Lupo
TTITLE8=Ayrton
TTITLE9=Canzone
TTITLE10=Tu Non Mi Basti Mai
TTITLE11=Angoli Nel Cielo
TTITLE12=Gli Anni Non Aspettano
TTITLE13=Prendimi Così
TTITLE14=Henna
TTITLE15=Apriti Cuore
TTITLE16=Le Rondini
EXTD=
EXTT0=
EXTT1=
EXTT2=
EXTT3=
EXTT4=
EXTT5=
EXTT6=
EXTT7=
EXTT8=
EXTT9=
EXTT10=
EXTT11=
EXTT12=
EXTT13=
EXTT14=
EXTT15=
EXTT16=
PLAYORDER=
